<svg width="695" height="450" viewBox="0 0 695 450" fill="none" xmlns="http://www.w3.org/2000/svg">
<path fill-rule="evenodd" clip-rule="evenodd" d="M118.351 2.4775L118.634 2.984L118.979 3.63315C119.187 4.03297 119.422 4.49681 119.677 5.02129C120.56 6.83732 121.45 8.89256 122.304 11.159C124.707 17.5381 126.386 24.4226 126.96 31.5958C127.738 41.3296 126.333 50.5153 122.774 58.8722L122.47 59.5741C119.579 66.1026 115.368 72.0842 109.899 77.4503L109.358 77.9748L109.818 77.9972C117.692 78.3285 125.478 77.6232 132.323 75.4411C133.791 74.9728 135.391 75.2142 136.656 76.0936C137.918 76.9718 138.702 78.3847 138.781 79.92L138.799 80.3961L138.81 81.0262V81.2688C138.81 82.147 138.784 83.1331 138.721 84.2124C138.548 87.1942 138.135 90.4107 137.416 93.7687C135.382 103.255 131.317 112.14 124.671 119.627C123.789 120.621 122.547 121.216 121.229 121.287L120.925 121.293C119.515 121.268 118.229 120.685 117.315 119.691L116.646 118.912L116.318 118.54L115.62 117.766L114.855 116.94C114.59 116.658 114.314 116.368 114.028 116.071C111.587 113.541 108.895 111.033 106.035 108.725C98.1069 102.328 90.4609 98.7159 83.9301 99.1079C73.2473 99.7492 64.4019 99.2505 56.1944 96.9471C45.5835 93.9709 37.2524 88.1297 31.739 78.8306L31.4299 78.3005C28.5754 73.3229 24.3596 67.5885 19.3867 61.6204C17.8498 59.7752 16.334 58.0209 14.8892 56.3991L14.2744 55.7118C13.2901 54.6168 12.4836 53.7442 12.1457 53.3893C10.8976 52.0741 10.4639 50.1874 11.0091 48.4623L11.0892 48.2287C11.6881 46.6171 13.0812 45.4221 14.779 45.0863L23.883 43.2871L23.9891 43.1344C27.2466 38.5039 31.8978 34.5821 38.0756 33.0019C44.1571 31.4464 50.5396 32.6358 56.9783 36.4161C64.1099 34.025 70.2341 28.5702 75.361 20.9051C77.8666 17.1596 79.9656 13.1333 81.6705 9.10033C82.2702 7.68075 82.7779 6.36226 83.1968 5.17291C83.3439 4.75736 83.4686 4.38674 83.5741 4.06329L83.7123 3.62529C84.2311 1.98782 85.6586 0.800725 87.3657 0.594077C89.0323 0.389675 90.5934 1.17696 91.5559 2.54376C92.0905 3.30072 92.597 4.07003 93.0766 4.84945C97.5588 12.1338 99.4669 19.6012 99.7264 26.5891C100.618 25.4626 101.471 24.289 102.277 23.076C106.446 16.8025 108.924 10.0965 109.101 4.80341C109.175 2.59205 110.701 0.692912 112.846 0.151584C114.994 -0.39199 117.24 0.559263 118.351 2.4775ZM85.6664 38.5825C77.2231 42.9962 68.3552 43.4376 59.4008 37.93C65.4295 35.1425 75.1027 29.3709 79.0953 23.4028C81.7716 19.4013 83.9998 15.1279 85.8079 10.849C86.3538 9.55856 86.8288 8.34226 87.2365 7.21917L87.4342 6.66661C87.5925 6.214 87.7296 5.80857 87.8464 5.45142C87.8755 5.19536 87.9025 5.11001 87.9283 5.19424C96.4818 11.0466 97.1141 22.6616 96.94 29.8235C93.5022 33.4927 89.6444 36.5025 85.6664 38.5825ZM88.2686 42.4358C91.694 40.6434 95.1127 38.3736 98.2944 35.6557C98.5381 35.5142 98.7549 35.3255 98.9301 35.1032C102.075 32.3303 104.967 29.1126 107.379 25.4828C111.433 19.3833 113.674 11.2982 114.475 5.49186L114.533 5.03813L114.896 5.79397C115.618 7.31912 116.346 9.02509 117.049 10.8917C118.6 15.0089 119.463 20.4817 120.275 25.6266V25.6277C120.629 27.875 120.974 30.0605 121.363 32.0428C125.653 53.9665 110.635 72.0617 104.505 79.4471C102.637 81.6978 101.595 82.9534 102.176 83.0208C112.467 84.2079 123.012 83.944 132.387 81.2856L133.197 81.0475V81.4765C133.193 82.0527 133.175 82.7434 133.135 83.5352L133.116 83.8878C132.959 86.5945 132.581 89.528 131.925 92.5917C130.187 100.7 126.829 110.531 121.468 116.985L120.972 117.57L120.163 116.659C120.016 116.497 119.861 116.326 119.698 116.148L118.917 115.307L118.07 114.419C115.478 111.73 109.143 106.147 107.049 104.374L105.356 102.949C97.4364 96.3238 91.1235 91.828 83.5944 93.5026L82.6307 93.7092C54.2099 99.5796 39.6356 82.621 26.093 64.8594L21.549 58.8722C21.0242 58.1849 20.1398 57.0629 18.8955 55.5052L14.7612 50.3693L26.1139 48.5712C26.797 48.4365 27.4031 48.0535 27.8175 47.4998L27.9358 47.3291C30.5206 43.2826 33.4283 38.9217 39.4166 37.4268C45.4038 35.9331 49.7681 37.7435 55.5183 41.5048L56.0012 41.8159C66.9446 48.7509 78.0575 47.7738 88.2686 42.4358ZM537.627 197.49C539.835 196.417 543.795 198.498 541.497 201.848C538.02 206.919 541.883 218.693 544.237 225.864V225.865V225.866C545.326 229.183 546.092 231.514 545.657 231.742C544.282 232.46 542.586 231.929 541.868 230.554C537.978 223.112 535.745 217.203 535.188 212.71C534.911 210.475 534.85 208.313 535.006 206.227L535.027 205.986L517.046 214.726L516.818 214.935C512.76 218.742 510.974 223.163 513.944 230.993L514.12 231.448C517.344 239.658 522.802 245.546 528.482 245.301L528.925 245.279C541.545 245.025 549.088 241.228 551.78 236.603C555.165 230.789 556.084 224.079 549.769 211.023C549.094 209.629 545.63 199.976 550.53 204.959C555.43 209.942 562.261 231.965 557.843 239.552C554.154 245.886 544.69 249.062 531.719 249.679C531.795 250.009 531.812 250.36 531.76 250.715C530.531 259.052 526.725 264.297 520.362 265.814C515.495 266.975 510.265 265.438 505.474 261.734C488.642 265.348 472.35 270.857 456.594 278.262L454.26 279.367C446.221 283.207 441.612 285.781 438.246 288.283C436.272 289.75 434.641 291.253 432.888 293.187L432.605 293.51C431.754 294.496 429.9 296.759 427.792 299.335L427.788 299.34L427.786 299.343L427.785 299.344L427.783 299.346L427.777 299.354L427.773 299.359C424.967 302.785 421.714 306.759 419.771 309.008L418.832 310.09C410.925 319.15 400.958 329.429 387.26 342.348L386.876 342.7C381.74 347.289 368.092 355.048 351.073 362.873C398.042 361.204 431.911 343.277 453.002 309.061C453.93 307.555 456.002 307.272 457.3 308.474C493.568 342.063 535.591 357.608 583.531 355.181C631.598 352.746 666.872 340.253 689.46 317.823C690.56 316.731 692.338 316.737 693.43 317.838C694.523 318.938 694.517 320.715 693.417 321.808C669.721 345.338 619.412 362.994 570.076 365.492C522.097 367.921 493.468 348.152 456.863 315.659L455.97 314.86L455.649 315.352C432.466 350.485 382.098 376.111 331.835 376.473L330.259 376.479C278.847 376.479 249.197 351.585 214.511 317.56L214.241 317.293L214.117 317.399L213.211 318.161L211.894 319.269L211.087 319.948C178.586 347.299 154.335 367.708 117.855 372.921L116.692 373.084C75.5609 381.405 13.1797 359.238 3.59349 348.373C-5.18984 338.417 5.05508 344.606 7.86762 346.305H7.86785C8.12481 346.46 8.31967 346.578 8.43231 346.642C35.6554 362.228 67.0434 368.164 104.703 363.028C109.899 362.318 115.064 361.38 120.196 360.212L120.136 359.658C118.492 344.042 118.482 337.216 120.852 329.381C124.074 318.725 131.898 310.628 145.973 304.19L149.849 302.476C167.234 294.815 181.041 289.062 195.363 283.473L196.412 283.064C198.018 282.439 199.645 281.811 201.306 281.174L202.934 280.553C203.521 280.345 211.175 277.31 222.812 272.697L222.817 272.696L222.847 272.683L222.853 272.681L222.855 272.68C249.756 262.015 297.888 242.934 329.288 230.793C336.08 228.181 344.304 227.313 354.392 227.834L355.261 227.882C362.818 228.327 370.251 229.352 382.435 231.46L393.142 233.336C405.096 235.405 410.889 236.221 417.652 236.703C419.778 236.854 421.798 237.042 423.718 237.221H423.719C430.83 237.881 436.554 238.413 441.114 236.493C445.171 234.785 449.147 233.135 453.043 231.519H453.044C465.788 226.232 477.674 221.302 488.705 215.818C489.462 210.912 491.395 207.29 494.424 204.905C499.096 201.226 505.71 201.164 511.447 203.394C512.892 203.957 513.607 205.584 513.046 207.029C512.864 207.497 511.696 207.281 510.043 206.977C506.586 206.339 501.01 205.31 497.898 209.316C494.436 213.774 493.286 220.601 496.352 234.045C498.574 243.787 512.976 260.353 519.059 260.353C525.841 260.353 527.427 253.768 528.327 250.034L528.383 249.8C520.317 250.009 514.188 244.905 510.21 235.109L510.016 234.624C505.924 224.206 507.046 215.856 513.662 210.226C513.783 210.124 513.912 210.032 514.047 209.952L514.255 209.84L537.627 197.49ZM500.293 256.658C500.009 256.314 499.728 255.962 499.451 255.601C499.344 255.489 499.244 255.375 499.157 255.27C498.901 254.959 498.639 254.643 498.371 254.322C496.195 251.708 493.674 248.679 491.699 244.313L491.413 243.676C488.246 236.582 487.869 228.612 488.063 222.041L488.092 221.278L487.925 221.363C474.84 227.838 460.606 234.335 445.223 240.853L443.294 241.668C436.707 244.442 428.482 246.402 418.059 245.728L417.253 245.673C410.132 245.165 404.142 244.314 391.583 242.134L382.206 240.49C355.772 235.913 342.544 235.199 331.645 239.275C331.645 239.275 169.097 300.421 148.279 309.309C135.618 315.101 131.322 320.551 126.086 329.381C123.377 333.949 123.651 346.549 123.842 355.3V355.302C123.874 356.769 123.903 358.128 123.917 359.323C154.651 351.636 184.195 335.656 212.567 311.349C213.686 310.391 215.355 310.459 216.39 311.506C218.686 313.828 221.02 316.069 223.392 318.232L340.444 269.33C340.766 269.195 341.097 269.125 341.425 269.113C342.306 268.697 343.258 268.354 344.277 268.082C354.484 265.369 362.635 269.783 368.267 280.65L378.47 273.208C379.975 272.11 382.112 272.755 382.758 274.501C392.068 299.664 389.356 316.906 374.025 325.226C358.563 333.615 345.117 326.697 334.635 305.728C334.103 304.664 334.312 303.434 335.048 302.606C332.549 292.454 332.085 284.366 333.786 278.509L231.232 324.984C246.567 337.434 263.405 346.824 281.76 353.157C282.18 352.755 282.635 352.409 283.082 352.165C298.542 343.696 336.633 333.804 346.042 331.36C346.856 331.149 347.455 330.993 347.806 330.898C352.221 329.716 347.698 333.841 346.365 334.456L346.196 334.528L290.601 355.937C307.139 360.648 324.848 363.002 343.736 363.002C344.811 363.002 345.878 362.994 346.939 362.977L348.182 362.169H348.184L348.185 362.167L348.187 362.166C360.076 354.438 379.956 341.517 383.407 338.263L385.017 336.74C396.464 325.632 404.982 314.978 412.42 305.676C420.578 295.471 427.433 286.897 435.422 281.145C441.632 276.672 443.883 275.65 449.174 273.249C450.589 272.607 452.221 271.866 454.205 270.933C468.237 264.339 484.172 260.521 499.131 256.936L500.293 256.658ZM345.721 273.509C353.808 271.359 359.866 275.157 364.483 285.763L352.553 295.22L352.541 295.225L340.215 300.089L339.907 298.735C336.531 283.435 338.73 275.367 345.721 273.509ZM364.483 285.763L352.564 295.217C352.803 295.122 353.049 295.063 353.295 295.036C353.52 295.012 353.746 295.016 353.966 295.046C354.49 295.116 354.987 295.334 355.396 295.675C355.664 295.9 355.893 296.176 356.066 296.498C358.88 301.565 361.055 302.771 363.263 301.532C365.601 300.221 366.336 295.292 364.628 286.486L364.483 285.763ZM209.832 401.049C211.137 400.209 220.137 395.817 212.122 404.072C204.106 412.326 141.68 447.344 107.983 449.283C75.5047 451.152 46.6684 437.588 21.5789 419.836L20.7475 419.243L20.5818 419.456C19.4711 420.864 18.3299 422.143 17.1571 423.289L16.6526 423.773C14.5275 425.768 10.8495 428.026 5.53553 430.651C4.14526 431.337 -0.767344 431.97 1.77465 429.376C4.31676 426.784 9.88053 423.052 13.1207 420.912C15.2383 419.513 15.9071 417.878 16.5706 416.255C16.9224 415.395 17.2727 414.538 17.8366 413.722C18.7424 412.412 20.5556 412.117 21.8302 413.071C46.5639 431.609 75.4565 441.491 107.983 439.619C140.644 437.739 174.376 423.862 209.832 401.049ZM401.934 418.95C403.073 417.898 403.073 410.396 401.934 411.447C389.319 423.088 362.907 433.327 330.316 435.203C297.684 437.081 272.028 431.95 253.298 419.906C251.994 419.067 245.538 416.849 249.418 420.75C253.298 424.649 296.912 444.996 330.639 443.054L331.648 442.995C364.88 440.967 388.309 431.523 401.934 418.95ZM378.898 280.472L378.729 279.968L370.276 286.136L370.431 287.007C372.131 296.95 370.971 303.448 366.257 306.287L366.01 306.431C361.096 309.186 356.47 307.239 352.602 301.577L352.432 301.325L341.065 305.917L341.328 306.394C350.016 322.072 359.647 326.433 370.98 320.485L371.346 320.29C382.727 314.114 385.532 301.51 379.292 281.694L378.898 280.472ZM47.2782 51.662C47.2782 53.8295 45.515 55.5928 43.3474 55.5928C41.1798 55.5928 39.4166 53.8295 39.4166 51.662C39.4166 49.4944 41.1798 47.7312 43.3474 47.7312C45.515 47.7312 47.2782 49.4944 47.2782 51.662Z" fill="#00160A"/>
</svg>
